<?xml version="1.0" encoding="UTF-8"?>
<svg width="30px" height="30px" viewBox="0 0 30 30" version="1.1" xmlns="http://www.w3.org/2000/svg" xmlns:xlink="http://www.w3.org/1999/xlink">
    <title>github</title>
    <g id="github" stroke="none" stroke-width="1" fill="none" fill-rule="evenodd">
        <path d="M15,0 C6.7125,0 0,6.88228492 0,15.3794076 C0,22.1847955 4.29375,27.9328491 10.25625,29.9706206 C11.00625,30.1051905 11.2875,29.6438082 11.2875,29.2400988 C11.2875,28.8748379 11.26875,27.6637095 11.26875,26.3756841 C7.5,27.0869817 6.525,25.4336954 6.225,24.5686037 C6.05625,24.1264457 5.325,22.7615233 4.6875,22.3962624 C4.1625,22.1078985 3.4125,21.3966009 4.66875,21.3773766 C5.85,21.3581524 6.69375,22.4923837 6.975,22.9537659 C8.325,25.2799013 10.48125,24.6262765 11.34375,24.222567 C11.475,23.2229055 11.86875,22.5500565 12.3,22.1655713 C8.9625,21.7810861 5.475,20.4546122 5.475,14.5719887 C5.475,12.8994782 6.05625,11.5153315 7.0125,10.4387729 C6.8625,10.0542877 6.3375,8.47789846 7.1625,6.36322991 C7.1625,6.36322991 8.41875,5.95952046 11.2875,7.9396192 C12.4875,7.59358252 13.7625,7.42056419 15.0375,7.42056419 C16.3125,7.42056419 17.5875,7.59358252 18.7875,7.9396192 C21.65625,5.9402962 22.9125,6.36322991 22.9125,6.36322991 C23.7375,8.47789846 23.2125,10.0542877 23.0625,10.4387729 C24.01875,11.5153315 24.6,12.8802539 24.6,14.5719887 C24.6,20.4738364 21.09375,21.7810861 17.75625,22.1655713 C18.3,22.6461778 18.76875,23.5689422 18.76875,25.0107617 C18.76875,27.0677575 18.75,28.7210438 18.75,29.2400988 C18.75,29.6438082 19.03125,30.1244147 19.78125,29.9706206 C25.8869664,27.8570472 29.9981601,21.9867301 30,15.3794076 C30,6.88228492 23.2875,0 15,0 Z" id="Path" fill="#F5D272"></path>
    </g>
</svg>