<?xml version="1.0" encoding="UTF-8"?>
<svg width="30px" height="30px" viewBox="0 0 30 30" version="1.1" xmlns="http://www.w3.org/2000/svg" xmlns:xlink="http://www.w3.org/1999/xlink">
    <title>global</title>
    <g id="global" stroke="none" stroke-width="1" fill="none" fill-rule="evenodd">
        <g id="global-outlined" fill="#45BAB0" fill-rule="nonzero">
            <path d="M26.4642857,24.6729911 C26.4709821,24.6629464 26.4810268,24.6529018 26.4877232,24.6428571 C28.6808036,22.0345982 30,18.6729911 30,15 C30,11.3270089 28.6808036,7.96540179 26.4910714,5.35714286 C26.484375,5.34709821 26.4743304,5.34040179 26.4676339,5.33035714 C26.4308036,5.28683036 26.3973214,5.24665179 26.3604911,5.20647321 C26.3470982,5.18973214 26.3337054,5.17633929 26.3203125,5.15959821 L26.1830357,5.00223214 L26.1796875,4.99888393 C26.1294643,4.94196429 26.0758929,4.88504464 26.0256696,4.828125 L26.0223214,4.82477679 C25.9151786,4.7109375 25.8080357,4.59709821 25.6975446,4.48660714 L25.6941964,4.48325893 L25.5334821,4.32254464 L25.5234375,4.3125 C25.4732143,4.26227679 25.4229911,4.21540179 25.3727679,4.16852679 C25.3560268,4.15178571 25.3392857,4.13504464 25.3191964,4.11830357 C25.2857143,4.08482143 25.2522321,4.0546875 25.21875,4.02455357 C25.2087054,4.01450893 25.1953125,4.00446429 25.1852679,3.99107143 C22.5133929,1.51339286 18.9341518,0 15,0 C11.0658482,0 7.48660714,1.51339286 4.81138393,3.99107143 C4.80133929,4.00111607 4.78794643,4.01116071 4.77790179,4.02455357 C4.74441964,4.0546875 4.7109375,4.08816964 4.67745536,4.12165179 C4.66071429,4.13839286 4.64397321,4.15513393 4.62388393,4.171875 C4.57366071,4.21875 4.5234375,4.26897321 4.47321429,4.31584821 L4.46316964,4.32589286 L4.30245536,4.48660714 L4.29910714,4.48995536 C4.18861607,4.60044643 4.08147321,4.71428571 3.97433036,4.828125 L3.97098214,4.83147321 C3.91741071,4.88839286 3.8671875,4.9453125 3.81696429,5.00223214 L3.81361607,5.00558036 C3.76674107,5.05580357 3.71986607,5.109375 3.67633929,5.16294643 C3.66294643,5.1796875 3.64955357,5.19308036 3.63616071,5.20982143 C3.59933036,5.25 3.56584821,5.29352679 3.52901786,5.33370536 C3.52232143,5.34375 3.51227679,5.35044643 3.50558036,5.36049107 C1.31919643,7.96540179 0,11.3270089 0,15 C0,18.6729911 1.31919643,22.0345982 3.50892857,24.6428571 C3.515625,24.6529018 3.52566964,24.6629464 3.53236607,24.6729911 L3.63616071,24.796875 C3.64955357,24.8136161 3.66294643,24.8270089 3.67633929,24.84375 L3.81361607,25.0011161 C3.81361607,25.0044643 3.81696429,25.0044643 3.81696429,25.0078125 C3.8671875,25.0647321 3.91741071,25.1216518 3.97098214,25.1752232 L3.97433036,25.1785714 C4.08147321,25.2924107 4.18861607,25.40625 4.29575893,25.5167411 L4.29910714,25.5200893 C4.35267857,25.5736607 4.40290179,25.6272321 4.45647321,25.6774554 L4.46651786,25.6875 C4.57700893,25.7979911 4.69084821,25.9051339 4.8046875,26.0089286 C7.48660714,28.4866071 11.0658482,30 15,30 C18.9341518,30 22.5133929,28.4866071 25.1886161,26.0089286 C25.302684,25.9043789 25.414321,25.7972074 25.5234375,25.6875 L25.5334821,25.6774554 C25.5870536,25.6238839 25.640625,25.5736607 25.6908482,25.5200893 L25.6941964,25.5167411 C25.8046875,25.40625 25.9118304,25.2924107 26.015625,25.1785714 L26.0189732,25.1752232 C26.0691964,25.1183036 26.1227679,25.0647321 26.1729911,25.0078125 C26.1729911,25.0044643 26.1763393,25.0044643 26.1763393,25.0011161 C26.2232143,24.9508929 26.2700893,24.8973214 26.3136161,24.84375 C26.3270089,24.8270089 26.3404018,24.8136161 26.3537946,24.796875 C26.3916534,24.7565092 26.4284953,24.7152016 26.4642857,24.6729911 L26.4642857,24.6729911 Z M26.6015625,19.8984375 C26.1395089,20.9899554 25.5301339,22.0011161 24.7868304,22.9185268 C23.9497048,22.1950547 23.03444,21.5672841 22.0580357,21.046875 C22.4464286,19.4765625 22.6875,17.7522321 22.7511161,15.9375 L27.5558036,15.9375 C27.4553571,17.3069196 27.1339286,18.6361607 26.6015625,19.8984375 L26.6015625,19.8984375 Z M27.5558036,14.0625 L22.7511161,14.0625 C22.6875,12.2477679 22.4464286,10.5234375 22.0580357,8.953125 C23.0390625,8.43080357 23.953125,7.80133929 24.7868304,7.08147321 C26.4025799,9.07022725 27.3690813,11.5069327 27.5558036,14.0625 L27.5558036,14.0625 Z M19.8984375,3.3984375 C21.2276786,3.9609375 22.4363839,4.73772321 23.5011161,5.71540179 C22.8825923,6.24205293 22.216828,6.71055376 21.5122768,7.11495536 C20.9866071,5.60825893 20.3136161,4.29910714 19.5301339,3.25111607 C19.6540179,3.29799107 19.7779018,3.34821429 19.8984375,3.3984375 Z M16.8649554,26.8560268 C16.5569196,27.0970982 16.2488839,27.28125 15.9375,27.4051339 L15.9375,21.1941964 C17.2660417,21.2868854 18.5725169,21.5827337 19.8113839,22.0714286 C19.5334821,22.8950893 19.2120536,23.6551339 18.8404018,24.3415179 C18.2578125,25.4263393 17.5747768,26.2935268 16.8649554,26.8560268 L16.8649554,26.8560268 Z M18.8404018,5.65848214 C19.2087054,6.34821429 19.5334821,7.10825893 19.8113839,7.92857143 C18.5725169,8.41726631 17.2660417,8.71311463 15.9375,8.80580357 L15.9375,2.59821429 C16.2455357,2.72209821 16.5569196,2.90290179 16.8649554,3.14732143 C17.5747768,3.70647321 18.2578125,4.57366071 18.8404018,5.65848214 L18.8404018,5.65848214 Z M15.9375,19.3158482 L15.9375,15.9375 L20.8761161,15.9375 C20.8225446,17.4174107 20.6383929,18.8537946 20.3303571,20.2165179 L20.3203125,20.2566964 C18.9151788,19.7238594 17.4375234,19.4066545 15.9375,19.3158482 L15.9375,19.3158482 Z M15.9375,14.0625 L15.9375,10.6841518 C17.4709821,10.5904018 18.9441964,10.265625 20.3203125,9.74330357 L20.3303571,9.78348214 C20.6383929,11.1462054 20.8225446,12.5792411 20.8761161,14.0625 L15.9375,14.0625 Z M14.0625,15.9375 L14.0625,19.3158482 C12.5290179,19.4095982 11.0558036,19.734375 9.6796875,20.2566964 L9.66964286,20.2165179 C9.36160714,18.8537946 9.17745536,17.4207589 9.12388393,15.9375 L14.0625,15.9375 Z M9.12388393,14.0625 C9.17745536,12.5825893 9.36160714,11.1462054 9.66964286,9.78348214 L9.6796875,9.74330357 C11.0558036,10.265625 12.5256696,10.5904018 14.0625,10.6841518 L14.0625,14.0625 L9.12388393,14.0625 Z M14.0625,21.1941964 L14.0625,27.4017857 C13.7544643,27.2779018 13.4430804,27.0970982 13.1350446,26.8526786 C12.4252232,26.2935268 11.7388393,25.4229911 11.15625,24.3381696 C10.7879464,23.6484375 10.4631696,22.8883929 10.1852679,22.0680804 C11.4308036,21.5792411 12.7265625,21.2879464 14.0625,21.1941964 Z M14.0625,8.80580357 C12.7339583,8.71311463 11.4274831,8.41726631 10.1886161,7.92857143 C10.4665179,7.10491071 10.7879464,6.34486607 11.1595982,5.65848214 C11.7421875,4.57366071 12.4252232,3.703125 13.1383929,3.14397321 C13.4464286,2.90290179 13.7544643,2.71875 14.0658482,2.59486607 L14.0658482,8.80580357 L14.0625,8.80580357 Z M10.1015625,3.3984375 C10.2254464,3.34821429 10.3459821,3.29799107 10.4698661,3.25111607 C9.68638393,4.29910714 9.01339286,5.60825893 8.48772321,7.11495536 C7.78459821,6.71316964 7.11830357,6.24441964 6.49888393,5.71540179 C7.56361607,4.73772321 8.77232143,3.9609375 10.1015625,3.3984375 L10.1015625,3.3984375 Z M3.3984375,10.1015625 C3.86049107,9.01004464 4.46986607,7.99888393 5.21316964,7.08147321 C6.046875,7.80133929 6.9609375,8.43080357 7.94196429,8.953125 C7.55357143,10.5234375 7.3125,12.2477679 7.24888393,14.0625 L2.44419643,14.0625 C2.54464286,12.6930804 2.86607143,11.3638393 3.3984375,10.1015625 Z M2.44419643,15.9375 L7.24888393,15.9375 C7.3125,17.7522321 7.55357143,19.4765625 7.94196429,21.046875 C6.96555998,21.5672841 6.05029517,22.1950547 5.21316964,22.9185268 C3.59742009,20.9297728 2.63091868,18.4930673 2.44419643,15.9375 Z M10.1015625,26.6015625 C8.77232143,26.0390625 7.56361607,25.2622768 6.49888393,24.2845982 C7.11830357,23.7555804 7.78459821,23.2901786 8.48772321,22.8850446 C9.01339286,24.3917411 9.68638393,25.7008929 10.4698661,26.7488839 C10.3459821,26.7020089 10.2220982,26.6517857 10.1015625,26.6015625 Z M19.8984375,26.6015625 C19.7745536,26.6517857 19.6540179,26.7020089 19.5301339,26.7488839 C20.3136161,25.7008929 20.9866071,24.3917411 21.5122768,22.8850446 C22.2154018,23.2868304 22.8816964,23.7555804 23.5011161,24.2845982 C22.4422852,25.2582028 21.2235483,26.0420001 19.8984375,26.6015625 L19.8984375,26.6015625 Z" id="Shape"></path>
        </g>
    </g>
</svg>