<?xml version="1.0" encoding="UTF-8"?>
<svg width="30px" height="30px" viewBox="0 0 30 30" version="1.1" xmlns="http://www.w3.org/2000/svg" xmlns:xlink="http://www.w3.org/1999/xlink">
    <title>linkedin</title>
    <g id="linkedin" stroke="none" stroke-width="1" fill="none" fill-rule="evenodd">
        <g fill="#0D65C2" fill-rule="nonzero" id="Group">
            <g>
                <path d="M0,2.14875 C0,0.961875 0.98625,0 2.203125,0 L27.796875,0 C29.01375,0 30,0.961875 30,2.14875 L30,27.85125 C30,29.038125 29.01375,30 27.796875,30 L2.203125,30 C0.98625,30 0,29.038125 0,27.85125 L0,2.14875 Z M9.268125,25.11375 L9.268125,11.566875 L4.76625,11.566875 L4.76625,25.11375 L9.268125,25.11375 Z M7.018125,9.71625 C8.5875,9.71625 9.564375,8.6775 9.564375,7.37625 C9.53625,6.046875 8.589375,5.03625 7.048125,5.03625 C5.506875,5.03625 4.5,6.04875 4.5,7.37625 C4.5,8.6775 5.476875,9.71625 6.988125,9.71625 L7.018125,9.71625 Z M16.220625,25.11375 L16.220625,17.548125 C16.220625,17.143125 16.250625,16.738125 16.370625,16.449375 C16.695,15.64125 17.435625,14.803125 18.680625,14.803125 C20.31,14.803125 20.960625,16.044375 20.960625,17.866875 L20.960625,25.11375 L25.4625,25.11375 L25.4625,17.34375 C25.4625,13.18125 23.2425,11.24625 20.28,11.24625 C17.89125,11.24625 16.820625,12.55875 16.220625,13.483125 L16.220625,13.53 L16.190625,13.53 C16.2005831,13.5143482 16.2105832,13.4987232 16.220625,13.483125 L16.220625,11.566875 L11.720625,11.566875 C11.776875,12.838125 11.720625,25.11375 11.720625,25.11375 L16.220625,25.11375 L16.220625,25.11375 Z" id="Shape"></path>
            </g>
        </g>
    </g>
</svg>