<?xml version="1.0" encoding="UTF-8"?>
<svg width="30px" height="30px" viewBox="0 0 30 30" version="1.1" xmlns="http://www.w3.org/2000/svg" xmlns:xlink="http://www.w3.org/1999/xlink">
    <title>twitter</title>
    <g id="twitter" stroke="none" stroke-width="1" fill="none" fill-rule="evenodd">
        <path d="M29.937,6.59434266 C28.8337674,7.07541709 27.6486181,7.40046738 26.4026919,7.54739012 C27.6882559,6.7904029 28.6500402,5.59899481 29.1085846,4.1954715 C27.9007699,4.90146704 26.5788738,5.39841112 25.2003665,5.66469882 C23.2943427,3.66199633 20.2585805,3.16980576 17.8004346,4.4649419 C15.3422887,5.76007803 14.0754433,8.51920588 14.7123898,11.1905538 C9.76298207,10.9460028 5.15170834,8.64541026 2.02587519,4.8611745 C1.49738052,5.75831331 1.19349608,6.79847424 1.19349608,7.90624564 C1.19229847,9.93160478 2.21954569,11.8236127 3.93109848,12.9484258 C2.9537484,12.9178223 1.99796142,12.6579397 1.14328909,12.1904085 L1.14328909,12.2684206 C1.14308582,15.1522233 3.20834952,17.6365485 6.08075055,18.2077395 C5.17409619,18.4492062 4.22353779,18.4847737 3.30086858,18.3117556 C4.10672006,20.7791087 6.4177409,22.4691018 9.0508906,22.5166062 C6.87062956,24.200901 4.17802073,25.1145254 1.40621519,25.1105075 C0.915218602,25.1106394 0.424637133,25.0824199 -0.063,25.0259944 C2.75054198,26.8061971 6.02570838,27.7509849 9.37062988,27.7473261 C20.6936282,27.7473261 26.883622,18.5184876 26.883622,10.5144492 C26.883622,10.2544089 26.8770159,9.99176831 26.8651247,9.73172808 C28.0691565,8.87486228 29.1084661,7.81379555 29.9343575,6.59824326 L29.937,6.59434266 L29.937,6.59434266 Z" id="Path" fill="#1CA2F1" fill-rule="nonzero"></path>
    </g>
</svg>