<?xml version="1.0" encoding="UTF-8"?>
<svg width="30px" height="30px" viewBox="0 0 30 30" version="1.1" xmlns="http://www.w3.org/2000/svg" xmlns:xlink="http://www.w3.org/1999/xlink">
    <title>typeScript</title>
    <g id="typeScript" stroke="none" stroke-width="1" fill="none" fill-rule="evenodd">
        <rect id="Rectangle" fill="#3178C6" x="0" y="0" width="30" height="30" rx="6"></rect>
        <path d="M15.2233677,26 L15.2233677,17.2 L18,17.2 L18,15 L10,15 L10,17.2 L12.7628866,17.2 L12.7628866,26 L15.2233677,26 Z M22.9572954,26 C25.519573,26 27,24.4468912 27,22.6800518 C27,21.1839378 26.2170819,20.3005181 24.9074733,19.7733161 L23.5836299,19.246114 C22.6441281,18.8756477 21.9893238,18.6476684 21.9893238,18.0492228 C21.9893238,17.4935233 22.4590747,17.1800518 23.2419929,17.1800518 C24.0676157,17.1800518 24.7224199,17.4650259 25.4199288,17.992228 L26.6868327,16.3963731 C25.7615658,15.4702073 24.4661922,15 23.2419929,15 C20.9928826,15 19.3985765,16.4248705 19.3985765,18.2059585 C19.3985765,19.7448187 20.4377224,20.6709845 21.5480427,21.1126943 L22.9003559,21.6826425 C23.8113879,22.0673575 24.3950178,22.2668394 24.3950178,22.8795337 C24.3950178,23.4494819 23.9537367,23.8056995 23.0142349,23.8056995 C22.1743772,23.8056995 21.1921708,23.3639896 20.4519573,22.7227979 L19,24.4753886 C20.0960854,25.4870466 21.5765125,26 22.9572954,26 Z" id="TS" fill="#FFFFFF" fill-rule="nonzero"></path>
    </g>
</svg>