<?xml version="1.0" encoding="UTF-8"?>
<svg width="30px" height="30px" viewBox="0 0 30 30" version="1.1" xmlns="http://www.w3.org/2000/svg" xmlns:xlink="http://www.w3.org/1999/xlink">
    <title>Artboard</title>
    <g id="Artboard" stroke="none" stroke-width="1" fill="none" fill-rule="evenodd">
        <g id="317716_cms_wordpress_blog_blogging_icon" transform="translate(0.000937, 0.000000)" fill="#21759B" fill-rule="nonzero">
            <path d="M14.9995313,0 C6.72916471,0 0,6.72916471 0,14.9995313 C0,23.2698978 6.72916471,30 14.9995313,30 C23.2698978,30 29.9990625,23.2698978 29.9990625,14.9995313 C29.9990625,6.72916471 23.2698978,0 14.9995313,0 Z M1.51401519,14.9995313 C1.51401519,13.0439674 1.93306459,11.1887129 2.68210368,9.51157776 L9.11409018,27.136027 C4.61610575,24.9507828 1.51401519,20.3374895 1.51401519,14.9995313 Z M14.9995313,28.4859848 C13.6758226,28.4859848 12.3980501,28.2928658 11.1905878,27.9375645 L15.2367114,16.1798069 L19.3822068,27.536327 C19.4093935,27.6019499 19.4422049,27.663823 19.4787663,27.7210087 C18.0763101,28.2159933 16.5707322,28.4859848 14.9995313,28.4859848 Z M16.8575982,8.67629137 C17.6694478,8.63410518 18.400675,8.54879535 18.400675,8.54879535 C19.1272148,8.46254805 19.0419049,7.39476891 18.3144277,7.4369551 C18.3144277,7.4369551 16.1310584,7.60851223 14.720165,7.60851223 C13.3945814,7.60851223 11.1680885,7.4369551 11.1680885,7.4369551 C10.4415487,7.39383144 10.3562389,8.50473423 11.0827787,8.54879535 C11.0827787,8.54879535 11.7708822,8.63410518 12.497422,8.67629137 L14.5982938,14.4342364 L11.647136,23.2848973 L6.73760195,8.67629137 C7.55038905,8.63410518 8.28067873,8.54879535 8.28067873,8.54879535 C9.00534358,8.46254805 8.92190869,7.39476891 8.19443142,7.4369551 C8.19443142,7.4369551 6.01012468,7.60851223 4.59923127,7.60851223 C4.34611418,7.60851223 4.0479985,7.60288741 3.7311334,7.59163776 C6.14418299,3.93081466 10.288741,1.51401519 14.9995313,1.51401519 C18.5103591,1.51401519 21.7071342,2.85553576 24.1070592,5.05484204 C24.048936,5.05015468 23.9917503,5.04265492 23.9317521,5.04265492 C22.607106,5.04265492 21.6668229,6.19668135 21.6668229,7.4369551 C21.6668229,8.54879535 22.3080529,9.488141 22.991469,10.5999813 C23.5042655,11.4971407 24.1042467,12.6511672 24.1042467,14.319865 C24.1042467,15.472954 23.6598856,16.8125996 23.0777163,18.6791038 L21.7315084,23.1724009 L16.8575982,8.67629137 Z M26.833224,8.53004594 C27.8860036,10.4518609 28.4850473,12.654917 28.4850473,14.9995313 C28.4850473,19.9756258 25.7888816,24.3179901 21.7802569,26.6569795 L25.8995031,14.7473516 C26.6682291,12.8236618 26.9250961,11.2852723 26.9250961,9.91844005 C26.9241586,9.4206431 26.8922846,8.96034499 26.833224,8.53004594 Z" id="Shape"></path>
        </g>
    </g>
</svg>