<?xml version="1.0" encoding="UTF-8"?>
<svg width="30px" height="30px" viewBox="0 0 30 30" version="1.1" xmlns="http://www.w3.org/2000/svg" xmlns:xlink="http://www.w3.org/1999/xlink">
    <title>youtube</title>
    <g id="youtube" stroke="none" stroke-width="1" fill="none" fill-rule="evenodd">
        <g id="5296522_youtube_youtube-logo_icon" transform="translate(0.000000, 4.000000)" fill-rule="nonzero">
            <g id="Group-2" transform="translate(-0.000059, 0.049805)">
                <path d="M29.373007,4.22935542 C29.0279725,2.93848928 28.0116087,1.92211132 26.7207607,1.57707195 C24.3810296,0.950195312 14.9998749,0.950195312 14.9998749,0.950195312 C14.9998749,0.950195312 5.6187201,0.950195312 3.27898907,1.57707195 C1.98832472,1.92211132 0.971777275,2.93848928 0.626742735,4.22935542 C5.859375e-05,6.56893547 5.859375e-05,11.450379 5.859375e-05,11.450379 C5.859375e-05,11.450379 5.859375e-05,16.3316389 0.626742735,18.6710352 C0.971777275,19.9619013 1.98832472,20.978463 3.27898907,21.3235024 C5.6187201,21.9501953 14.9998749,21.9501953 14.9998749,21.9501953 C14.9998749,21.9501953 24.3810296,21.9501953 26.7207607,21.3235024 C28.0116087,20.978463 29.0279725,19.9619013 29.373007,18.6710352 C30.0000586,16.3316389 30.0000586,11.450379 30.0000586,11.450379 C30.0000586,11.450379 30.0000586,6.56893547 29.373007,4.22935542 L29.373007,4.22935542 Z" id="Path" fill="#ED1F24"></path>
                <polygon id="Path" fill="#FFFFFF" points="12.0000586 16.9501953 20.0000586 11.9502974 12.0000586 6.95019531"></polygon>
            </g>
        </g>
    </g>
</svg>